<mxfile host="65bd71144e">
    <diagram id="-OYodvtU612ZM6xwr-c4" name="Page-1">
        <mxGraphModel dx="1261" dy="917" grid="1" gridSize="10" guides="1" tooltips="1" connect="1" arrows="1" fold="1" page="1" pageScale="1" pageWidth="10000000" pageHeight="10000000" math="0" shadow="0">
            <root>
                <mxCell id="0"/>
                <mxCell id="1" parent="0"/>
                <mxCell id="6" value="" style="edgeStyle=none;html=1;fontSize=24;" parent="1" source="2" target="5" edge="1">
                    <mxGeometry relative="1" as="geometry"/>
                </mxCell>
                <mxCell id="2" value="&lt;font style=&quot;font-size: 24px&quot;&gt;populateBean&lt;br&gt;填充属性&lt;/font&gt;" style="whiteSpace=wrap;html=1;" parent="1" vertex="1">
                    <mxGeometry x="150" y="320" width="220" height="90" as="geometry"/>
                </mxCell>
                <mxCell id="8" value="" style="edgeStyle=none;html=1;fontSize=20;entryX=0;entryY=0.5;entryDx=0;entryDy=0;" parent="1" source="5" target="16" edge="1">
                    <mxGeometry relative="1" as="geometry">
                        <mxPoint x="490" y="485" as="targetPoint"/>
                    </mxGeometry>
                </mxCell>
                <mxCell id="9" value="为null" style="edgeLabel;html=1;align=center;verticalAlign=middle;resizable=0;points=[];fontSize=20;" parent="8" vertex="1" connectable="0">
                    <mxGeometry x="-0.1833" y="-2" relative="1" as="geometry">
                        <mxPoint as="offset"/>
                    </mxGeometry>
                </mxCell>
                <mxCell id="11" value="" style="edgeStyle=none;html=1;fontSize=20;entryX=0.5;entryY=0;entryDx=0;entryDy=0;" parent="1" source="5" target="22" edge="1">
                    <mxGeometry relative="1" as="geometry">
                        <mxPoint x="260" y="610" as="targetPoint"/>
                    </mxGeometry>
                </mxCell>
                <mxCell id="12" value="不为null" style="edgeLabel;html=1;align=center;verticalAlign=middle;resizable=0;points=[];fontSize=20;" parent="11" vertex="1" connectable="0">
                    <mxGeometry x="-0.3684" y="1" relative="1" as="geometry">
                        <mxPoint as="offset"/>
                    </mxGeometry>
                </mxCell>
                <mxCell id="5" value="&lt;font style=&quot;font-size: 20px&quot;&gt;beanWrapper是否等于空&lt;/font&gt;" style="rhombus;whiteSpace=wrap;html=1;" parent="1" vertex="1">
                    <mxGeometry x="150" y="440" width="220" height="90" as="geometry"/>
                </mxCell>
                <mxCell id="14" value="" style="edgeStyle=none;html=1;fontSize=20;" parent="1" source="16" target="13" edge="1">
                    <mxGeometry relative="1" as="geometry">
                        <mxPoint x="830" y="485" as="sourcePoint"/>
                    </mxGeometry>
                </mxCell>
                <mxCell id="13" value="&lt;font style=&quot;font-size: 20px&quot;&gt;定义bean的时候，必须要有property标签来完成解析工作&lt;/font&gt;" style="whiteSpace=wrap;html=1;" parent="1" vertex="1">
                    <mxGeometry x="870" y="432.5" width="390" height="105" as="geometry"/>
                </mxCell>
                <mxCell id="18" value="" style="edgeStyle=none;html=1;fontSize=20;" parent="1" source="16" target="17" edge="1">
                    <mxGeometry relative="1" as="geometry"/>
                </mxCell>
                <mxCell id="21" value="是" style="edgeLabel;html=1;align=center;verticalAlign=middle;resizable=0;points=[];fontSize=20;" parent="18" vertex="1" connectable="0">
                    <mxGeometry x="-0.475" y="-1" relative="1" as="geometry">
                        <mxPoint as="offset"/>
                    </mxGeometry>
                </mxCell>
                <mxCell id="16" value="&#10;&#10;&lt;span style=&quot;color: rgb(0, 0, 0); font-family: helvetica; font-size: 20px; font-style: normal; font-weight: 400; letter-spacing: normal; text-align: center; text-indent: 0px; text-transform: none; word-spacing: 0px; background-color: rgb(248, 249, 250); display: inline; float: none;&quot;&gt;当前BD中是否包含&lt;/span&gt;&lt;br style=&quot;color: rgb(0, 0, 0); font-family: helvetica; font-size: 20px; font-style: normal; font-weight: 400; letter-spacing: normal; text-align: center; text-indent: 0px; text-transform: none; word-spacing: 0px; background-color: rgb(248, 249, 250);&quot;&gt;&lt;span style=&quot;color: rgb(0, 0, 0); font-family: helvetica; font-size: 20px; font-style: normal; font-weight: 400; letter-spacing: normal; text-align: center; text-indent: 0px; text-transform: none; word-spacing: 0px; background-color: rgb(248, 249, 250); display: inline; float: none;&quot;&gt;propertyValue对象&lt;/span&gt;&#10;&#10;" style="rhombus;whiteSpace=wrap;html=1;fontSize=20;" parent="1" vertex="1">
                    <mxGeometry x="470" y="430" width="300" height="110" as="geometry"/>
                </mxCell>
                <mxCell id="17" value="抛出异常" style="whiteSpace=wrap;html=1;fontSize=20;" parent="1" vertex="1">
                    <mxGeometry x="560" y="620" width="120" height="60" as="geometry"/>
                </mxCell>
                <mxCell id="24" value="" style="edgeStyle=none;html=1;fontSize=20;" parent="1" source="22" target="23" edge="1">
                    <mxGeometry relative="1" as="geometry"/>
                </mxCell>
                <mxCell id="25" value="是" style="edgeLabel;html=1;align=center;verticalAlign=middle;resizable=0;points=[];fontSize=20;" parent="24" vertex="1" connectable="0">
                    <mxGeometry x="-0.3" y="1" relative="1" as="geometry">
                        <mxPoint as="offset"/>
                    </mxGeometry>
                </mxCell>
                <mxCell id="29" style="edgeStyle=elbowEdgeStyle;html=1;exitX=1;exitY=0.5;exitDx=0;exitDy=0;entryX=1;entryY=0.5;entryDx=0;entryDy=0;fontSize=20;" parent="1" source="22" target="26" edge="1">
                    <mxGeometry relative="1" as="geometry">
                        <Array as="points">
                            <mxPoint x="490" y="780"/>
                        </Array>
                    </mxGeometry>
                </mxCell>
                <mxCell id="30" value="否" style="edgeLabel;html=1;align=center;verticalAlign=middle;resizable=0;points=[];fontSize=20;" parent="29" vertex="1" connectable="0">
                    <mxGeometry x="-0.6584" y="2" relative="1" as="geometry">
                        <mxPoint as="offset"/>
                    </mxGeometry>
                </mxCell>
                <mxCell id="22" value="判断mbd的Synthetic是否为true同时包含InstantiationAwareBeanPostProcessor" style="rhombus;whiteSpace=wrap;html=1;fontSize=20;" parent="1" vertex="1">
                    <mxGeometry x="55" y="590" width="410" height="100" as="geometry"/>
                </mxCell>
                <mxCell id="27" value="" style="edgeStyle=none;html=1;fontSize=20;" parent="1" source="23" target="26" edge="1">
                    <mxGeometry relative="1" as="geometry"/>
                </mxCell>
                <mxCell id="23" value="进行实例化之后的属性设置工作" style="whiteSpace=wrap;html=1;fontSize=20;" parent="1" vertex="1">
                    <mxGeometry x="185" y="760" width="150" height="60" as="geometry"/>
                </mxCell>
                <mxCell id="32" value="" style="edgeStyle=elbowEdgeStyle;html=1;fontSize=20;" parent="1" source="26" target="31" edge="1">
                    <mxGeometry relative="1" as="geometry"/>
                </mxCell>
                <mxCell id="26" value="获取PropertyValue的注入模式，是ByType还是ByName" style="whiteSpace=wrap;html=1;fontSize=20;" parent="1" vertex="1">
                    <mxGeometry x="160" y="890" width="200" height="60" as="geometry"/>
                </mxCell>
                <mxCell id="34" value="" style="edgeStyle=elbowEdgeStyle;html=1;fontSize=20;" parent="1" source="31" target="33" edge="1">
                    <mxGeometry relative="1" as="geometry"/>
                </mxCell>
                <mxCell id="35" value="byName" style="edgeLabel;html=1;align=center;verticalAlign=middle;resizable=0;points=[];fontSize=20;" parent="34" vertex="1" connectable="0">
                    <mxGeometry x="0.3455" y="-1" relative="1" as="geometry">
                        <mxPoint as="offset"/>
                    </mxGeometry>
                </mxCell>
                <mxCell id="36" style="edgeStyle=elbowEdgeStyle;html=1;exitX=1;exitY=0.5;exitDx=0;exitDy=0;fontSize=20;entryX=0;entryY=0.5;entryDx=0;entryDy=0;" parent="1" source="31" target="37" edge="1">
                    <mxGeometry relative="1" as="geometry">
                        <mxPoint x="620" y="1180" as="targetPoint"/>
                    </mxGeometry>
                </mxCell>
                <mxCell id="38" value="byType" style="edgeLabel;html=1;align=center;verticalAlign=middle;resizable=0;points=[];fontSize=20;" parent="36" vertex="1" connectable="0">
                    <mxGeometry x="0.1937" y="2" relative="1" as="geometry">
                        <mxPoint as="offset"/>
                    </mxGeometry>
                </mxCell>
                <mxCell id="40" style="edgeStyle=elbowEdgeStyle;html=1;exitX=0.5;exitY=1;exitDx=0;exitDy=0;entryX=0.5;entryY=0;entryDx=0;entryDy=0;fontSize=20;" parent="1" source="31" target="39" edge="1">
                    <mxGeometry relative="1" as="geometry"/>
                </mxCell>
                <mxCell id="31" value="模式判断" style="rhombus;whiteSpace=wrap;html=1;fontSize=20;" parent="1" vertex="1">
                    <mxGeometry x="115" y="1030" width="290" height="80" as="geometry"/>
                </mxCell>
                <mxCell id="33" value="autowireByName方法来注入" style="whiteSpace=wrap;html=1;fontSize=20;" parent="1" vertex="1">
                    <mxGeometry x="620" y="990" width="120" height="60" as="geometry"/>
                </mxCell>
                <mxCell id="37" value="AutowireByType方式来注入" style="whiteSpace=wrap;html=1;fontSize=20;" parent="1" vertex="1">
                    <mxGeometry x="620" y="1100" width="120" height="60" as="geometry"/>
                </mxCell>
                <mxCell id="42" value="" style="edgeStyle=elbowEdgeStyle;html=1;fontSize=20;" parent="1" source="39" target="41" edge="1">
                    <mxGeometry relative="1" as="geometry"/>
                </mxCell>
                <mxCell id="43" value="是" style="edgeLabel;html=1;align=center;verticalAlign=middle;resizable=0;points=[];fontSize=20;" parent="42" vertex="1" connectable="0">
                    <mxGeometry x="-0.3412" relative="1" as="geometry">
                        <mxPoint as="offset"/>
                    </mxGeometry>
                </mxCell>
                <mxCell id="45" value="" style="edgeStyle=elbowEdgeStyle;html=1;fontSize=20;entryX=0.5;entryY=0;entryDx=0;entryDy=0;" parent="1" source="39" target="48" edge="1">
                    <mxGeometry relative="1" as="geometry">
                        <mxPoint x="260" y="1360" as="targetPoint"/>
                    </mxGeometry>
                </mxCell>
                <mxCell id="46" value="否" style="edgeLabel;html=1;align=center;verticalAlign=middle;resizable=0;points=[];fontSize=20;" parent="45" vertex="1" connectable="0">
                    <mxGeometry x="-0.2" y="1" relative="1" as="geometry">
                        <mxPoint as="offset"/>
                    </mxGeometry>
                </mxCell>
                <mxCell id="39" value="是否实现了InstantiationAwareBeanPostProcessor" style="rhombus;whiteSpace=wrap;html=1;fontSize=20;" parent="1" vertex="1">
                    <mxGeometry x="55" y="1160" width="410" height="100" as="geometry"/>
                </mxCell>
                <mxCell id="47" style="edgeStyle=elbowEdgeStyle;html=1;exitX=1;exitY=0.5;exitDx=0;exitDy=0;fontSize=20;entryX=1;entryY=0.5;entryDx=0;entryDy=0;" parent="1" source="41" target="48" edge="1">
                    <mxGeometry relative="1" as="geometry">
                        <mxPoint x="320" y="1390" as="targetPoint"/>
                        <Array as="points">
                            <mxPoint x="980" y="1270"/>
                            <mxPoint x="1180" y="1600"/>
                            <mxPoint x="1030" y="1290"/>
                        </Array>
                    </mxGeometry>
                </mxCell>
                <mxCell id="41" value="调用postProcessorProperties方法来进行属性值的设置工作" style="whiteSpace=wrap;html=1;fontSize=20;" parent="1" vertex="1">
                    <mxGeometry x="550" y="1180" width="390" height="60" as="geometry"/>
                </mxCell>
                <mxCell id="50" value="" style="edgeStyle=elbowEdgeStyle;html=1;fontSize=20;" parent="1" source="48" target="49" edge="1">
                    <mxGeometry relative="1" as="geometry"/>
                </mxCell>
                <mxCell id="48" value="pvs不等于空" style="rhombus;whiteSpace=wrap;html=1;fontSize=20;" parent="1" vertex="1">
                    <mxGeometry x="92.5" y="1310" width="335" height="100" as="geometry"/>
                </mxCell>
                <mxCell id="55" style="edgeStyle=elbowEdgeStyle;html=1;exitX=1;exitY=0.5;exitDx=0;exitDy=0;fontSize=20;" parent="1" source="49" target="54" edge="1">
                    <mxGeometry relative="1" as="geometry"/>
                </mxCell>
                <mxCell id="57" value="" style="edgeStyle=elbowEdgeStyle;html=1;fontSize=20;" parent="1" source="49" target="56" edge="1">
                    <mxGeometry relative="1" as="geometry"/>
                </mxCell>
                <mxCell id="49" value="applyProperyValues" style="whiteSpace=wrap;html=1;fontSize=20;" parent="1" vertex="1">
                    <mxGeometry x="155" y="1460" width="210" height="60" as="geometry"/>
                </mxCell>
                <mxCell id="54" value="具体的属性值设置" style="shape=note;size=20;whiteSpace=wrap;html=1;fontSize=20;fillColor=#ffff88;strokeColor=#36393d;fontColor=#000000;" parent="1" vertex="1">
                    <mxGeometry x="405" y="1460" width="240" height="60" as="geometry"/>
                </mxCell>
                <mxCell id="59" value="" style="edgeStyle=elbowEdgeStyle;html=1;fontSize=20;" parent="1" source="56" target="58" edge="1">
                    <mxGeometry relative="1" as="geometry"/>
                </mxCell>
                <mxCell id="56" value="对PropertyValues进行一系列的验证工作" style="whiteSpace=wrap;html=1;fontSize=20;" parent="1" vertex="1">
                    <mxGeometry x="200" y="1600" width="120" height="60" as="geometry"/>
                </mxCell>
                <mxCell id="61" value="" style="edgeStyle=elbowEdgeStyle;html=1;fontSize=20;" parent="1" source="58" target="60" edge="1">
                    <mxGeometry relative="1" as="geometry"/>
                </mxCell>
                <mxCell id="58" value="循环遍历集合中所有存在的propertyValue" style="whiteSpace=wrap;html=1;fontSize=20;" parent="1" vertex="1">
                    <mxGeometry x="400" y="1595" width="210" height="70" as="geometry"/>
                </mxCell>
                <mxCell id="63" value="" style="edgeStyle=elbowEdgeStyle;html=1;fontSize=20;" parent="1" source="60" target="62" edge="1">
                    <mxGeometry relative="1" as="geometry"/>
                </mxCell>
                <mxCell id="60" value="反别获取name和value对象" style="whiteSpace=wrap;html=1;fontSize=20;" parent="1" vertex="1">
                    <mxGeometry x="392.5" y="1730" width="225" height="60" as="geometry"/>
                </mxCell>
                <mxCell id="65" value="" style="edgeStyle=elbowEdgeStyle;html=1;fontSize=20;" parent="1" source="62" target="64" edge="1">
                    <mxGeometry relative="1" as="geometry"/>
                </mxCell>
                <mxCell id="68" style="edgeStyle=elbowEdgeStyle;html=1;exitX=1;exitY=0.5;exitDx=0;exitDy=0;fontSize=20;" parent="1" source="62" target="67" edge="1">
                    <mxGeometry relative="1" as="geometry"/>
                </mxCell>
                <mxCell id="70" style="edgeStyle=elbowEdgeStyle;html=1;exitX=1;exitY=0.5;exitDx=0;exitDy=0;fontSize=20;" parent="1" source="62" target="69" edge="1">
                    <mxGeometry relative="1" as="geometry"/>
                </mxCell>
                <mxCell id="71" style="edgeStyle=elbowEdgeStyle;html=1;exitX=1;exitY=0.5;exitDx=0;exitDy=0;fontSize=20;entryX=0;entryY=0.5;entryDx=0;entryDy=0;entryPerimeter=0;" parent="1" source="62" target="72" edge="1">
                    <mxGeometry relative="1" as="geometry">
                        <mxPoint x="900" y="2090" as="targetPoint"/>
                    </mxGeometry>
                </mxCell>
                <mxCell id="81" style="edgeStyle=elbowEdgeStyle;html=1;exitX=1;exitY=0.5;exitDx=0;exitDy=0;entryX=0;entryY=0.5;entryDx=0;entryDy=0;entryPerimeter=0;fontSize=20;" parent="1" source="62" target="74" edge="1">
                    <mxGeometry relative="1" as="geometry"/>
                </mxCell>
                <mxCell id="82" style="edgeStyle=elbowEdgeStyle;html=1;exitX=1;exitY=0.5;exitDx=0;exitDy=0;fontSize=20;" parent="1" source="62" target="73" edge="1">
                    <mxGeometry relative="1" as="geometry"/>
                </mxCell>
                <mxCell id="83" style="edgeStyle=elbowEdgeStyle;html=1;exitX=1;exitY=0.5;exitDx=0;exitDy=0;fontSize=20;" parent="1" source="62" target="75" edge="1">
                    <mxGeometry relative="1" as="geometry"/>
                </mxCell>
                <mxCell id="84" style="edgeStyle=elbowEdgeStyle;html=1;exitX=1;exitY=0.5;exitDx=0;exitDy=0;entryX=0;entryY=0.5;entryDx=0;entryDy=0;entryPerimeter=0;fontSize=20;" parent="1" source="62" target="76" edge="1">
                    <mxGeometry relative="1" as="geometry"/>
                </mxCell>
                <mxCell id="85" style="edgeStyle=elbowEdgeStyle;html=1;exitX=1;exitY=0.5;exitDx=0;exitDy=0;fontSize=20;" parent="1" source="62" target="78" edge="1">
                    <mxGeometry relative="1" as="geometry"/>
                </mxCell>
                <mxCell id="86" style="edgeStyle=elbowEdgeStyle;html=1;exitX=1;exitY=0.5;exitDx=0;exitDy=0;fontSize=20;" parent="1" source="62" target="79" edge="1">
                    <mxGeometry relative="1" as="geometry"/>
                </mxCell>
                <mxCell id="87" style="edgeStyle=elbowEdgeStyle;html=1;exitX=1;exitY=0.5;exitDx=0;exitDy=0;fontSize=20;" parent="1" source="62" target="80" edge="1">
                    <mxGeometry relative="1" as="geometry"/>
                </mxCell>
                <mxCell id="89" value="value值可能的类型" style="edgeLabel;html=1;align=center;verticalAlign=middle;resizable=0;points=[];fontSize=20;" parent="87" vertex="1" connectable="0">
                    <mxGeometry x="-0.6371" y="-1" relative="1" as="geometry">
                        <mxPoint as="offset"/>
                    </mxGeometry>
                </mxCell>
                <mxCell id="62" value="resolveValueIfNecessary&lt;br&gt;调用此方法来完成value值的解析工作" style="whiteSpace=wrap;html=1;fontSize=20;" parent="1" vertex="1">
                    <mxGeometry x="287.5" y="1850" width="435" height="110" as="geometry"/>
                </mxCell>
                <mxCell id="106" value="" style="edgeStyle=elbowEdgeStyle;elbow=vertical;html=1;fontSize=20;" parent="1" source="64" target="105" edge="1">
                    <mxGeometry relative="1" as="geometry"/>
                </mxCell>
                <mxCell id="64" value="返回实际的对象" style="whiteSpace=wrap;html=1;fontSize=20;" parent="1" vertex="1">
                    <mxGeometry x="382.5" y="2050" width="245" height="85" as="geometry"/>
                </mxCell>
                <mxCell id="91" value="" style="edgeStyle=elbowEdgeStyle;html=1;fontSize=20;fontColor=#000000;" parent="1" source="67" target="90" edge="1">
                    <mxGeometry relative="1" as="geometry"/>
                </mxCell>
                <mxCell id="67" value="RuntimeBeanReference" style="shape=note;size=20;whiteSpace=wrap;html=1;fontSize=20;fillColor=#ffff88;strokeColor=#36393d;fontColor=#000000;" parent="1" vertex="1">
                    <mxGeometry x="1167.5" y="1450" width="240" height="60" as="geometry"/>
                </mxCell>
                <mxCell id="99" value="" style="edgeStyle=elbowEdgeStyle;html=1;fontSize=20;fontColor=#000000;" parent="1" source="69" target="98" edge="1">
                    <mxGeometry relative="1" as="geometry"/>
                </mxCell>
                <mxCell id="69" value="BeanDefinitions" style="shape=note;size=20;whiteSpace=wrap;html=1;fontSize=20;fillColor=#ffff88;strokeColor=#36393d;fontColor=#000000;" parent="1" vertex="1">
                    <mxGeometry x="1167.5" y="1530" width="240" height="60" as="geometry"/>
                </mxCell>
                <mxCell id="107" style="edgeStyle=none;html=1;exitX=0;exitY=0;exitDx=240;exitDy=40;exitPerimeter=0;fontColor=#000000;" edge="1" parent="1" source="72" target="100">
                    <mxGeometry relative="1" as="geometry"/>
                </mxCell>
                <mxCell id="72" value="BeanDefinitionHolder" style="shape=note;size=20;whiteSpace=wrap;html=1;fontSize=20;fillColor=#ffff88;strokeColor=#36393d;fontColor=#000000;" parent="1" vertex="1">
                    <mxGeometry x="1167.5" y="1610" width="240" height="60" as="geometry"/>
                </mxCell>
                <mxCell id="73" value="DependencyDescriptor" style="shape=note;size=20;whiteSpace=wrap;html=1;fontSize=20;fillColor=#ffff88;strokeColor=#36393d;fontColor=#000000;" parent="1" vertex="1">
                    <mxGeometry x="1167.5" y="1770" width="240" height="60" as="geometry"/>
                </mxCell>
                <mxCell id="103" value="" style="edgeStyle=elbowEdgeStyle;html=1;fontSize=20;fontColor=#000000;" parent="1" source="74" target="102" edge="1">
                    <mxGeometry relative="1" as="geometry"/>
                </mxCell>
                <mxCell id="74" value="RuntimeBeanNameReference" style="shape=note;size=20;whiteSpace=wrap;html=1;fontSize=20;fillColor=#ffff88;strokeColor=#36393d;fontColor=#000000;" parent="1" vertex="1">
                    <mxGeometry x="1167.5" y="1690" width="240" height="60" as="geometry"/>
                </mxCell>
                <mxCell id="75" value="ManagedArray" style="shape=note;size=20;whiteSpace=wrap;html=1;fontSize=20;fillColor=#ffff88;strokeColor=#36393d;fontColor=#000000;" parent="1" vertex="1">
                    <mxGeometry x="1167.5" y="1840" width="240" height="60" as="geometry"/>
                </mxCell>
                <mxCell id="76" value="&lt;span&gt;ManagedList/Set/Map&lt;/span&gt;" style="shape=note;size=20;whiteSpace=wrap;html=1;fontSize=20;fillColor=#ffff88;strokeColor=#36393d;fontColor=#000000;" parent="1" vertex="1">
                    <mxGeometry x="1167.5" y="1920" width="240" height="60" as="geometry"/>
                </mxCell>
                <mxCell id="78" value="&lt;span&gt;ManagedProperties&lt;/span&gt;" style="shape=note;size=20;whiteSpace=wrap;html=1;fontSize=20;fillColor=#ffff88;strokeColor=#36393d;fontColor=#000000;" parent="1" vertex="1">
                    <mxGeometry x="1167.5" y="2000" width="240" height="60" as="geometry"/>
                </mxCell>
                <mxCell id="79" value="TypedStringValue" style="shape=note;size=20;whiteSpace=wrap;html=1;fontSize=20;fillColor=#ffff88;strokeColor=#36393d;fontColor=#000000;" parent="1" vertex="1">
                    <mxGeometry x="1167.5" y="2080" width="240" height="60" as="geometry"/>
                </mxCell>
                <mxCell id="80" value="NullBean" style="shape=note;size=20;whiteSpace=wrap;html=1;fontSize=20;fillColor=#ffff88;strokeColor=#36393d;fontColor=#000000;" parent="1" vertex="1">
                    <mxGeometry x="1167.5" y="2160" width="240" height="60" as="geometry"/>
                </mxCell>
                <mxCell id="93" value="" style="edgeStyle=elbowEdgeStyle;html=1;fontSize=20;fontColor=#000000;" parent="1" source="90" target="92" edge="1">
                    <mxGeometry relative="1" as="geometry"/>
                </mxCell>
                <mxCell id="90" value="resolveReference" style="whiteSpace=wrap;html=1;fontSize=20;fillColor=#ffff88;strokeColor=#36393d;fontColor=#000000;" parent="1" vertex="1">
                    <mxGeometry x="1500" y="1460" width="252.5" height="40" as="geometry"/>
                </mxCell>
                <mxCell id="95" value="" style="edgeStyle=elbowEdgeStyle;html=1;fontSize=20;fontColor=#000000;" parent="1" source="92" target="94" edge="1">
                    <mxGeometry relative="1" as="geometry"/>
                </mxCell>
                <mxCell id="97" value="" style="edgeStyle=elbowEdgeStyle;html=1;fontSize=20;" parent="1" source="92" target="96" edge="1">
                    <mxGeometry relative="1" as="geometry"/>
                </mxCell>
                <mxCell id="92" value="this.beanFactory.getBean(resolvedName)" style="whiteSpace=wrap;html=1;fontSize=20;fillColor=#ffff88;strokeColor=#36393d;fontColor=#000000;" parent="1" vertex="1">
                    <mxGeometry x="1790" y="1450" width="421.25" height="60" as="geometry"/>
                </mxCell>
                <mxCell id="94" value="回到获取对象的开始，也就是getBean（）方法" style="whiteSpace=wrap;html=1;fontSize=20;fillColor=#ffff88;strokeColor=#36393d;fontColor=#000000;" parent="1" vertex="1">
                    <mxGeometry x="1860" y="1300" width="259.38" height="60" as="geometry"/>
                </mxCell>
                <mxCell id="104" style="edgeStyle=elbowEdgeStyle;html=1;exitX=0.5;exitY=1;exitDx=0;exitDy=0;fontSize=20;elbow=vertical;" parent="1" source="96" target="64" edge="1">
                    <mxGeometry relative="1" as="geometry">
                        <mxPoint x="505" y="2140" as="targetPoint"/>
                        <Array as="points">
                            <mxPoint x="1500" y="2300"/>
                        </Array>
                    </mxGeometry>
                </mxCell>
                <mxCell id="96" value="返回创建的Bean对象" style="whiteSpace=wrap;html=1;fontSize=20;fillColor=#ffff88;strokeColor=#36393d;fontColor=#000000;" parent="1" vertex="1">
                    <mxGeometry x="2280.005" y="1450" width="120" height="60" as="geometry"/>
                </mxCell>
                <mxCell id="98" value="resolveInnerBean" style="whiteSpace=wrap;html=1;fontSize=20;fillColor=#ffff88;strokeColor=#36393d;fontColor=#000000;" parent="1" vertex="1">
                    <mxGeometry x="1547.5" y="1530" width="192.5" height="60" as="geometry"/>
                </mxCell>
                <mxCell id="100" value="resolveInnerBean" style="whiteSpace=wrap;html=1;fontSize=20;fillColor=#ffff88;strokeColor=#36393d;fontColor=#000000;" parent="1" vertex="1">
                    <mxGeometry x="1547.5" y="1610" width="200" height="60" as="geometry"/>
                </mxCell>
                <mxCell id="102" value="refName" style="whiteSpace=wrap;html=1;fontSize=20;fillColor=#ffff88;strokeColor=#36393d;fontColor=#000000;" parent="1" vertex="1">
                    <mxGeometry x="1547.5" y="1690" width="202.5" height="60" as="geometry"/>
                </mxCell>
                <mxCell id="105" value="setPropertyValues给bean对象设置属性值" style="whiteSpace=wrap;html=1;fontSize=20;" parent="1" vertex="1">
                    <mxGeometry x="10" y="2030" width="230" height="137.5" as="geometry"/>
                </mxCell>
            </root>
        </mxGraphModel>
    </diagram>
</mxfile>